<svg xmlns="http://www.w3.org/2000/svg" xmlns:xlink="http://www.w3.org/1999/xlink" version="1.1" x="0px" y="0px" viewBox="0 0 66.499997 66.699997" enable-background="new 0 0 89.5 93.7" xml:space="preserve">
  <g transform="translate(-10.700002,-15.8)">
    <path fill="#b5152b" d="M35.4,77.7C30,83.2,21.1,83.4,15.6,78c-5.5-5.4-5.7-14.3-0.2-19.8c5.4-5.6,14.3-5.7,19.8-0.3      C40.7,63.3,40.8,72.1,35.4,77.7z"/>
    <path fill="#b5152b" d="M73.8,46.7L73.8,46.7l1.6,5.9l-6.5,2.7l-3.1-5.2L66,50c-2.3,0.4-4.7,0.5-7.1,0l-3.1,5.2l-6.5-2.7      l1.5-5.9l0.1,0.1c-1.9-1.4-3.6-3-4.9-4.9l0,0l-5.9,1.5l-2.7-6.5l5.2-3.1l0.1,0.2c-0.4-2.3-0.4-4.7,0-7.1l-5.2-3.1l2.7-6.5      l5.9,1.5L46.1,19c0.8-1.2,1.7-2.2,2.8-3.2H15c-2.4,0-4.3,2-4.3,4.4v28.4l4,2.9l-0.1,0.1c2-1.3,4.1-2.2,6.4-2.7l0,0l0.8-5.9      l6.9-0.1l0.9,5.9l-0.2,0c2.2,0.4,4.4,1.3,6.4,2.5l4.7-3.6l4.9,4.8l-3.5,4.8l-0.1-0.1c1.3,2,2.2,4.1,2.7,6.3v0l5.9,0.8l0.1,6.9      l-5.9,1l0-0.2c-0.5,2.2-1.3,4.4-2.5,6.4l3.2,4.1h27.6c2.4,0,4.3-1.9,4.3-4.4V43.9C76.1,44.9,75,45.9,73.8,46.7z"/>
    <path fill="#b5152b" d="M75.6,35.8c-3,7.3-11.4,10.7-18.6,7.7c-7.3-3-10.7-11.4-7.7-18.6c3-7.3,11.4-10.7,18.6-7.7      C75.2,20.2,78.6,28.5,75.6,35.8z"/>
  </g>
</svg>